HIERARCHY
ROOT hip
{
	OFFSET 0.000000 0.000000 0.000000
	CHANNELS 6 Xposition Yposition Zposition Xrotation Zrotation Yrotation 
	JOINT abdomen
	{
		OFFSET 0.000000 3.422050 0.000000
		CHANNELS 3 Xrotation Zrotation Yrotation 
		JOINT chest
		{
			OFFSET 0.000000 8.486693 -0.684411
			CHANNELS 3 Xrotation Zrotation Yrotation 
			JOINT neck
			{
				OFFSET 0.000000 10.266162 -0.273764
				CHANNELS 3 Xrotation Zrotation Yrotation 
				JOINT head
				{
					OFFSET 0.000000 3.148285 0.000000
					CHANNELS 3 Xrotation Zrotation Yrotation 
					End Site
					{
						OFFSET 0.000000 3.148289 0.000000
					}
				}
			}
			JOINT lCollar
			{
				OFFSET 3.422053 6.707223 -0.821293
				CHANNELS 3 Yrotation Zrotation Xrotation 
				JOINT lShldr
				{
					OFFSET 3.285171 0.000000 0.000000
					CHANNELS 3 Zrotation Yrotation Xrotation 
					JOINT lForeArm
					{
						OFFSET 10.129278 0.000000 0.000000
						CHANNELS 3 Yrotation Zrotation Xrotation 
						JOINT lHand
						{
							OFFSET 8.486692 0.000000 0.000000
							CHANNELS 3 Zrotation Yrotation Xrotation 
							End Site
							{
								OFFSET 4.106464 0.000000 0.000000
							}
						}
					}
				}
			}
			JOINT rCollar
			{
				OFFSET -3.558935 6.707223 -0.821293
				CHANNELS 3 Yrotation Zrotation Xrotation 
				JOINT rShldr
				{
					OFFSET -3.148289 0.000000 0.000000
					CHANNELS 3 Zrotation Yrotation Xrotation 
					JOINT rForeArm
					{
						OFFSET -10.266159 0.000000 0.000000
						CHANNELS 3 Yrotation Zrotation Xrotation 
						JOINT rHand
						{
							OFFSET -8.349810 0.000000 0.000000
							CHANNELS 3 Zrotation Yrotation Xrotation 
							End Site
							{
								OFFSET -4.106464 0.000000 0.000000
							}
						}
					}
				}
			}
		}
	}
	JOINT lThigh
	{
		OFFSET 5.338403 -1.642589 1.368821
		CHANNELS 3 Xrotation Zrotation Yrotation 
		JOINT lShin
		{
			OFFSET -2.053232 -20.121670 0.000000
			CHANNELS 3 Xrotation Zrotation Yrotation 
			JOINT lFoot
			{
				OFFSET 0.000000 -19.300380 -1.231939
				CHANNELS 3 Xrotation Yrotation Zrotation 
				End Site
				{
					OFFSET 0.000000 -2.463878 4.653993
				}
			}
		}
	}
	JOINT rThigh
	{
		OFFSET -5.338403 -1.642589 1.368821
		CHANNELS 3 Xrotation Zrotation Yrotation 
		JOINT rShin
		{
			OFFSET 2.053232 -20.121670 0.000000
			CHANNELS 3 Xrotation Zrotation Yrotation 
			JOINT rFoot
			{
				OFFSET 0.000000 -19.300380 -1.231939
				CHANNELS 3 Xrotation Yrotation Zrotation 
				End Site
				{
					OFFSET 0.000000 -2.463878 4.653993
				}
			}
		}
	}
}
MOTION
Frames: 13
Frame Time: 0.033325
7.998947 1.995800 6.633615 -115.004364 0.000000 0.000000 83.998894 0.000000 0.000000 19.998167 0.000000 0.000000 30.999151 0.000000 0.000000 -66.023819 0.000000 0.000000 0.000000 0.000000 0.000000 -75.999939 4.996779 0.000451 -81.003273 0.000000 0.000000 24.997551 0.000000 0.000000 17.767004 6.877834 0.767527 72.995064 56.357929 29.994934 5.999485 4.996978 0.998127 31.816135 -14.615829 -5.675073 -48.736237 38.815670 -29.865129 133.723419 0.000001 -0.000000 2.999194 -0.003497 -1.002185 -54.885326 -45.911903 29.579855 129.541855 -0.000002 0.000001 20.996786 0.000000 0.000000 
7.998947 1.995800 6.906682 -115.004364 0.000000 0.000000 83.998894 0.000000 0.000000 19.998167 0.000000 0.000000 30.999151 0.000000 0.000000 -65.306381 0.000000 0.000000 0.000000 0.000000 0.000000 -75.999939 4.996779 0.000451 -81.003273 0.000000 0.000000 24.997551 0.000000 0.000000 17.813774 7.302179 0.814518 72.995605 55.886547 29.995275 5.999485 4.996978 0.998127 33.695114 -15.615739 -4.276416 -49.377407 39.452919 -29.873438 135.180038 0.000001 -0.000000 2.999194 -0.003497 -1.002185 -56.264462 -46.733513 29.601917 130.633163 -0.000002 0.000001 20.996786 0.000000 0.000000 
7.998947 1.995800 7.179748 -115.004364 0.000000 0.000000 83.998894 0.000000 0.000000 19.998167 0.000000 0.000000 30.999151 0.000000 0.000000 -64.587967 0.000000 0.000000 0.000000 0.000000 0.000000 -75.999939 4.996779 0.000451 -81.003273 0.000000 0.000000 24.997551 0.000000 0.000000 17.860235 7.726542 0.861203 72.996178 55.415226 29.995636 5.999485 4.996978 0.998127 35.554451 -16.657284 -2.907925 -50.024548 40.089935 -29.891146 136.635925 0.000000 -0.000000 2.999194 -0.003497 -1.002185 -57.664700 -47.554016 29.653561 131.724167 -0.000002 0.000001 20.996786 0.000000 0.000000 
7.998947 1.995800 7.452814 -115.004364 0.000000 0.000000 83.998894 0.000000 0.000000 19.998167 0.000000 0.000000 30.999151 0.000000 0.000000 -63.868664 0.000000 0.000000 0.000000 0.000000 0.000000 -75.999939 4.996779 0.000451 -81.003273 0.000000 0.000000 24.997551 0.000000 0.000000 17.906397 8.150916 0.907586 72.996727 54.943928 29.995975 5.999485 4.996978 0.998127 37.392395 -17.737474 -1.571710 -50.677887 40.726559 -29.918493 138.090668 0.000000 -0.000000 2.999194 -0.003497 -1.002185 -59.087051 -48.372616 29.736095 132.814667 -0.000002 0.000001 20.996786 0.000000 0.000000 
7.998947 1.995800 7.725881 -115.004364 0.000000 0.000000 83.998894 0.000000 0.000000 19.998167 0.000000 0.000000 30.999151 0.000000 0.000000 -63.148479 0.000000 0.000000 0.000000 0.000000 0.000000 -75.999939 4.996779 0.000451 -81.003273 0.000000 0.000000 24.997551 0.000000 0.000000 17.952251 8.575283 0.953668 72.997253 54.472679 29.996296 5.999485 4.996978 0.998127 39.207386 -18.853142 -0.269643 -51.337708 41.362629 -29.955765 139.543747 0.000000 -0.000000 2.999194 -0.003497 -1.002185 -60.532627 -49.188484 29.850885 133.904480 -0.000002 0.000001 20.996786 0.000000 0.000000 
7.998947 1.995800 7.998947 -115.004364 0.000000 0.000000 83.998894 0.000000 0.000000 19.998167 0.000000 0.000000 30.999151 0.000000 0.000000 -62.427498 0.000000 0.000000 0.000000 0.000000 0.000000 -75.999939 4.996779 0.000451 -81.003273 0.000000 0.000000 24.997551 0.000000 0.000000 17.997807 8.999632 0.999454 72.997787 54.001511 29.996616 5.999485 4.996978 0.998127 40.998127 -20.001020 0.996610 -52.004253 41.997978 -30.003229 140.994720 0.000000 0.000000 2.999194 -0.003497 -1.002185 -62.002541 -50.000759 29.999308 134.993393 -0.000002 0.000001 20.996786 0.000000 0.000000 
7.998947 1.995800 7.848761 -115.004364 0.000000 0.000000 83.998894 0.000000 0.000000 19.998167 0.000000 0.000000 30.999151 0.000000 0.000000 -61.705769 0.000000 0.000000 0.000000 0.000000 0.000000 -75.999939 4.996779 0.000451 -81.003273 0.000000 0.000000 24.997551 0.000000 0.000000 17.972794 8.766246 0.974309 72.997505 54.260651 29.996450 5.999485 4.996978 0.998127 40.016277 -19.365898 0.304694 -51.636803 41.648632 -29.975845 140.196976 0.000000 -0.000000 2.999194 -0.003497 -1.002185 -61.191025 -49.554512 29.913435 134.394608 -0.000002 0.000001 20.996786 0.000000 0.000000 
7.998947 1.995800 7.698574 -115.004364 0.000000 0.000000 83.998894 0.000000 0.000000 19.998167 0.000000 0.000000 30.999151 0.000000 0.000000 -60.983345 0.000000 0.000000 0.000000 0.000000 0.000000 -75.999939 4.996779 0.000451 -81.003273 0.000000 0.000000 24.997551 0.000000 0.000000 17.947676 8.532847 0.949074 72.997215 54.519814 29.996275 5.999485 4.996978 0.998127 39.026947 -18.740067 -0.398264 -51.271420 41.299042 -29.951578 139.398514 0.000000 -0.000000 2.999194 -0.003497 -1.002185 -60.387009 -49.107048 29.837925 133.795532 -0.000002 0.000001 20.996786 0.000000 0.000000 
7.998947 1.995800 7.548388 -115.004364 0.000000 0.000000 83.998894 0.000000 0.000000 19.998167 0.000000 0.000000 30.999151 0.000000 0.000000 -60.260281 0.000000 0.000000 0.000000 0.000000 0.000000 -75.999939 4.996779 0.000451 -81.003273 0.000000 0.000000 24.997551 0.000000 0.000000 17.922480 8.299447 0.923749 72.996902 54.778976 29.996084 5.999485 4.996978 0.998127 38.030315 -18.124084 -1.112011 -50.908073 40.949257 -29.930399 138.599442 0.000000 -0.000000 2.999194 -0.003497 -1.002185 -59.590313 -48.658520 29.772535 133.196198 -0.000002 0.000001 20.996786 0.000000 0.000000 
7.998947 1.995800 7.398201 -115.004364 0.000000 0.000000 83.998894 0.000000 0.000000 19.998167 0.000000 0.000000 30.999151 0.000000 0.000000 -59.536648 0.000000 0.000000 0.000000 0.000000 0.000000 -75.999939 4.996779 0.000451 -81.003273 0.000000 0.000000 24.997551 0.000000 0.000000 17.897190 8.066041 0.898333 72.996613 55.038170 29.995903 5.999485 4.996978 0.998127 37.026592 -17.518494 -1.836277 -50.546715 40.599274 -29.912241 137.799820 0.000000 -0.000000 2.999194 -0.003497 -1.002185 -58.800770 -48.209099 29.717060 132.596603 -0.000002 0.000001 20.996786 0.000000 0.000000 
7.998947 1.995800 7.248014 -115.004364 0.000000 0.000000 83.998894 0.000000 0.000000 19.998167 0.000000 0.000000 30.999151 0.000000 0.000000 -58.812485 0.000000 0.000000 0.000000 0.000000 0.000000 -75.999939 4.996779 0.000451 -81.003273 0.000000 0.000000 24.997551 0.000000 0.000000 17.871807 7.832637 0.872827 72.996300 55.297382 29.995716 5.999485 4.996978 0.998127 36.016003 -16.923830 -2.570769 -50.187302 40.249146 -29.897074 136.999741 0.000000 -0.000000 2.999194 -0.003497 -1.002185 -58.018169 -47.758881 29.671247 131.996857 -0.000002 0.000001 20.996786 0.000000 0.000000 
7.998947 1.995800 7.097828 -115.004364 0.000000 0.000000 83.998894 0.000000 0.000000 19.998167 0.000000 0.000000 30.999151 0.000000 0.000000 -58.087849 0.000000 0.000000 0.000000 0.000000 0.000000 -75.999939 4.996779 0.000451 -81.003273 0.000000 0.000000 24.997551 0.000000 0.000000 17.846331 7.599233 0.847230 72.995995 55.556606 29.995523 5.999485 4.996978 0.998127 34.998821 -16.340622 -3.315176 -49.829765 39.898865 -29.884830 136.199265 0.000000 -0.000000 2.999194 -0.003497 -1.002185 -57.242348 -47.308029 29.634884 131.396912 -0.000002 0.000001 20.996786 0.000000 0.000000 
7.998947 1.995800 6.947641 -115.004364 0.000000 0.000000 83.998894 0.000000 0.000000 19.998167 0.000000 0.000000 30.999151 0.000000 0.000000 -57.362823 0.000000 0.000000 0.000000 0.000000 0.000000 -75.999939 4.996779 0.000451 -81.003273 0.000000 0.000000 24.997551 0.000000 0.000000 17.820761 7.365832 0.821541 72.995705 55.815861 29.995337 5.999485 4.996978 0.998127 33.975304 -15.769383 -4.069165 -49.474098 39.548489 -29.875490 135.398468 0.000001 -0.000000 2.999194 -0.003497 -1.002185 -56.473110 -46.856667 29.607737 130.796844 -0.000002 0.000001 20.996786 0.000000 0.000000 
